<?xml version="1.0" encoding="UTF-8"?>
<svg id="Layer_2" xmlns="http://www.w3.org/2000/svg" viewBox="0 0 16.5 7.5">
  <defs>
    <style>.cls-1{fill:#fff;}</style>
  </defs>
  <g id="Layer_1-2">
    <g>
      <path class="cls-1" d="M0,0h1.5v7.5H0V0zM1.5,3.75L4.5,0h2L3,3.75L6.5,7.5h-2L1.5,3.75z"/>
      <path class="cls-1" d="M8,0.75c1.66,0,3,1.34,3,3s-1.34,3-3,3s-3-1.34-3-3S6.34,0.75,8,0.75zM8,2.25c-0.83,0-1.5,0.67-1.5,1.5S7.17,5.25,8,5.25s1.5-0.67,1.5-1.5S8.83,2.25,8,2.25zM10,5.25l1.5,2.25v-1.5L10.75,5L10,5.25z"/>
    </g>
  </g>
</svg>
