<?xml version="1.0" encoding="UTF-8"?><svg id="Layer_2" xmlns="http://www.w3.org/2000/svg" viewBox="0 0 82.5 7.5"><defs><style>.cls-1{fill:#fff;}</style></defs><g id="Layer_1-2"><g><path class="cls-1" d="M7.5,1.5H1.5v1.5H7.5V7.5H0v-1.5H6v-1.5H0V0H7.5V1.5Z"/><path class="cls-1" d="M16.5,0V7.5h-7.5V0h7.5Zm-6,1.5V6h4.5V1.5h-4.5Z"/><path class="cls-1" d="M18,0h7.5V1.5h-6V6h6v1.5h-7.5V0Z"/><path class="cls-1" d="M28.5,0V7.5h-1.5V0h1.5Z"/><path class="cls-1" d="M33.75,7.5v-1.5h1.45l-1.45-3.75-2.04,5.25h-1.71l3-7.5h1.5l3,7.5h-3.75Z"/><path class="cls-1" d="M46.5,7.5h-7.5V0h1.5V6h6v1.5Z"/><path class="cls-1" d="M49.5,7.5h-1.5V0h7.5V4.5h-6v3Zm4.5-4.5V1.5h-4.5v1.5h4.5Z"/><path class="cls-1" d="M64.5,0V7.5h-7.5V0h7.5Zm-6,1.5V6h4.5V1.5h-4.5Z"/><path class="cls-1" d="M73.5,1.5h-6v1.5h6V7.5h-7.5v-1.5h6v-1.5h-6V0h7.5V1.5Z"/><path class="cls-1" d="M75,0h7.5V1.5h-3V7.5h-1.5V1.5h-3V0Z"/></g></g></svg>